<svg width="297" height="85" viewBox="0 0 297 85" fill="none" xmlns="http://www.w3.org/2000/svg">
<g clip-path="url(#clip0_67_10)">
<path d="M95.3789 69H90.6914V46.793H81.2578V69H76.8047V42.5742H95.3789V69ZM123.562 42.5742V79.7812H104.988V75.6211H118.875V69H105.105V42.5742H109.441V64.6641H118.875V42.5742H123.562ZM153.562 69H146.648L138.504 57.3984H137.625V69H133.172V29.3906H137.625V53.8242L146.59 42.6328H152.977L141.844 55.3477L153.562 69ZM194.227 58.2188V64.7812H208.113V69H189.539V42.5742H207.996V58.2188H194.227ZM194.227 53.8828H203.719V46.9102H194.227V53.8828ZM222.41 58.2188V64.7812H236.297V69H217.723V42.5742H236.18V58.2188H222.41ZM222.41 53.8828H231.902V46.9102H222.41V53.8828ZM266.297 69H259.383L251.238 57.3984H250.359V69H245.906V29.3906H250.359V53.8242L259.324 42.6328H265.711L254.578 55.3477L266.297 69ZM278.543 64.6055H287.977V59.625L274.09 56.4023V42.5742H292.664V52.1836H288.27V46.9688H278.777V52.1836L292.547 55.4062V68.9414L274.09 69V62.3789H278.543V64.6055Z" fill="white"/>
<path d="M169.734 46.793H179.93V69H161.355V35.4258H179.93V39.8203H166.043V64.7812H175.477V50.9531H169.734V46.793Z" fill="#FF8800"/>
<rect x="9" width="55" height="16" fill="white"/>
<rect x="2" y="43" width="43" height="13" transform="rotate(-90 2 43)" fill="white"/>
<rect x="51" y="53" width="27" height="13" transform="rotate(-90 51 53)" fill="#FF8800"/>
<rect x="23" y="26" width="41" height="17" fill="#FF8800"/>
<rect x="2" y="53" width="62" height="16" fill="white"/>
</g>
<defs>
<clipPath id="clip0_67_10">
<rect width="297" height="85" fill="white"/>
</clipPath>
</defs>
</svg>
