<svg width="389" height="118" viewBox="0 0 389 118" fill="none" xmlns="http://www.w3.org/2000/svg">
<path d="M146.752 102H141.283V76.0918H130.277V102H125.082V71.1699H146.752V102ZM179.633 71.1699V114.578H157.963V109.725H174.164V102H158.1V71.1699H163.158V96.9414H174.164V71.1699H179.633ZM214.633 102H206.566L197.064 88.4648H196.039V102H190.844V55.7891H196.039V84.2949L206.498 71.2383H213.949L200.961 86.0723L214.633 102ZM262.074 89.4219V97.0781H278.275V102H256.605V71.1699H278.139V89.4219H262.074ZM262.074 84.3633H273.148V76.2285H262.074V84.3633ZM294.955 89.4219V97.0781H311.156V102H289.486V71.1699H311.02V89.4219H294.955ZM294.955 84.3633H306.029V76.2285H294.955V84.3633ZM346.156 102H338.09L328.588 88.4648H327.562V102H322.367V55.7891H327.562V84.2949L338.021 71.2383H345.473L332.484 86.0723L346.156 102ZM360.443 96.873H371.449V91.0625L355.248 87.3027V71.1699H376.918V82.3809H371.791V76.2969H360.717V82.3809L376.781 86.1406V101.932L355.248 102V94.2754H360.443V96.873Z" fill="white"/>
<path d="M233.5 76.0918H245.395V102H223.725V62.8301H245.395V67.957H229.193V97.0781H240.199V80.9453H233.5V76.0918Z" fill="#FF8800"/>
<rect x="14.3333" y="0.00012207" width="100.667" height="24.3333" fill="white"/>
<rect x="1.63159" y="62.8206" width="62.8205" height="24.4755" transform="rotate(-90 1.63159 62.8206)" fill="white"/>
<rect x="90.5593" y="76.6901" width="38.345" height="24.4755" transform="rotate(-90 90.5593 76.6901)" fill="#FF8800"/>
<rect x="39.9768" y="38.345" width="75.0583" height="24.4755" fill="#FF8800"/>
<rect x="1.63159" y="76.6901" width="113.403" height="24.4755" fill="white"/>
</svg>
